<svg xmlns="http://www.w3.org/2000/svg" xmlns:xlink="http://www.w3.org/1999/xlink" width="1080" zoomAndPan="magnify" viewBox="0 0 810 809.999993" height="1080" preserveAspectRatio="xMidYMid meet" version="1.0"><defs><g/></defs><g fill="#d9d9d9" fill-opacity="1"><g transform="translate(330.774713, 404.116317)"><g><path d="M 7.96875 -21.953125 C 8.53125 -22.066406 9.109375 -22.125 9.703125 -22.125 C 10.015625 -22.125 10.476562 -22.085938 11.09375 -22.015625 C 11.71875 -21.941406 12.65625 -21.707031 13.90625 -21.3125 L 15.34375 -20.84375 L 15.21875 -19.578125 C 15.15625 -18.953125 15.050781 -18.5 14.90625 -18.21875 C 14.769531 -17.9375 14.632812 -17.796875 14.5 -17.796875 C 14.46875 -17.796875 14.421875 -17.8125 14.359375 -17.84375 L 14.328125 -17.84375 C 14.265625 -17.84375 14.203125 -17.820312 14.140625 -17.78125 C 14.085938 -17.738281 14.0625 -17.660156 14.0625 -17.546875 C 14.007812 -17.398438 13.910156 -17.328125 13.765625 -17.328125 C 13.710938 -17.328125 13.609375 -17.34375 13.453125 -17.375 C 13.296875 -17.40625 12.835938 -17.617188 12.078125 -18.015625 C 11.367188 -18.410156 10.675781 -18.609375 10 -18.609375 C 9.914062 -18.609375 9.664062 -18.59375 9.25 -18.5625 C 8.84375 -18.53125 8.363281 -18.300781 7.8125 -17.875 C 7.257812 -17.457031 6.820312 -16.800781 6.5 -15.90625 C 6.175781 -15.019531 6 -14.109375 5.96875 -13.171875 C 5.96875 -12.328125 6.023438 -11.632812 6.140625 -11.09375 C 6.253906 -10.5625 6.46875 -10.070312 6.78125 -9.625 C 7.03125 -9.226562 7.410156 -8.898438 7.921875 -8.640625 C 8.429688 -8.390625 8.953125 -8.265625 9.484375 -8.265625 C 9.941406 -8.265625 10.570312 -8.394531 11.375 -8.65625 C 12.175781 -8.925781 12.664062 -9.175781 12.84375 -9.40625 C 12.894531 -9.519531 12.976562 -9.578125 13.09375 -9.578125 C 13.144531 -9.578125 13.203125 -9.546875 13.265625 -9.484375 C 13.347656 -9.429688 13.472656 -9.40625 13.640625 -9.40625 C 13.785156 -9.40625 13.972656 -9.429688 14.203125 -9.484375 C 14.453125 -9.546875 14.644531 -9.578125 14.78125 -9.578125 C 14.875 -9.578125 14.925781 -9.5625 14.9375 -9.53125 C 14.945312 -9.5 14.953125 -9.472656 14.953125 -9.453125 C 14.953125 -9.367188 14.910156 -9.253906 14.828125 -9.109375 C 14.742188 -8.972656 14.703125 -8.847656 14.703125 -8.734375 C 14.703125 -8.648438 14.726562 -8.578125 14.78125 -8.515625 C 14.894531 -8.398438 14.953125 -8.273438 14.953125 -8.140625 C 14.953125 -7.910156 14.789062 -7.585938 14.46875 -7.171875 C 14.144531 -6.765625 13.5625 -6.351562 12.71875 -5.9375 C 11.269531 -5.226562 10.234375 -4.851562 9.609375 -4.8125 C 8.992188 -4.769531 8.628906 -4.75 8.515625 -4.75 C 7.523438 -4.75 6.550781 -4.988281 5.59375 -5.46875 C 4.519531 -6.03125 3.648438 -6.742188 2.984375 -7.609375 C 2.316406 -8.472656 1.84375 -9.453125 1.5625 -10.546875 C 1.445312 -11.085938 1.390625 -11.695312 1.390625 -12.375 C 1.390625 -13.195312 1.453125 -14.03125 1.578125 -14.875 C 1.710938 -15.71875 2.035156 -16.617188 2.546875 -17.578125 C 3.078125 -18.597656 3.863281 -19.53125 4.90625 -20.375 C 5.957031 -21.226562 6.976562 -21.753906 7.96875 -21.953125 Z M 7.96875 -21.953125 "/></g></g></g><g fill="#d9d9d9" fill-opacity="1"><g transform="translate(346.919579, 404.116317)"><g><path d="M 12.921875 -22.421875 C 13.285156 -22.585938 13.644531 -22.675781 14 -22.6875 C 14.351562 -22.707031 14.5625 -22.71875 14.625 -22.71875 C 15.070312 -22.71875 15.296875 -22.6875 15.296875 -22.625 C 15.347656 -22.488281 15.40625 -22.304688 15.46875 -22.078125 C 15.550781 -21.960938 15.59375 -21.78125 15.59375 -21.53125 C 15.59375 -21.300781 15.484375 -20.878906 15.265625 -20.265625 C 15.054688 -19.660156 14.894531 -19.0625 14.78125 -18.46875 C 14.5625 -17.3125 13.5625 -14.5625 11.78125 -10.21875 C 11.101562 -8.550781 10.171875 -6.5 8.984375 -4.0625 C 8.441406 -3.050781 7.828125 -2.15625 7.140625 -1.375 C 6.453125 -0.601562 5.8125 -0.117188 5.21875 0.078125 C 4.820312 0.222656 4.453125 0.296875 4.109375 0.296875 C 3.429688 0.296875 2.835938 0.0546875 2.328125 -0.421875 C 1.878906 -0.785156 1.566406 -0.96875 1.390625 -0.96875 C 1.421875 -0.96875 1.4375 -0.957031 1.4375 -0.9375 C 1.4375 -1.019531 1.554688 -1.257812 1.796875 -1.65625 C 2.035156 -2.050781 2.242188 -2.316406 2.421875 -2.453125 C 2.640625 -2.710938 2.75 -2.910156 2.75 -3.046875 C 2.75 -2.960938 2.78125 -2.921875 2.84375 -2.921875 C 2.894531 -2.921875 2.953125 -2.921875 3.015625 -2.921875 L 3.4375 -2.875 C 3.488281 -2.875 3.546875 -2.875 3.609375 -2.875 C 3.941406 -2.875 4.109375 -2.929688 4.109375 -3.046875 C 4.109375 -3.160156 4.234375 -3.390625 4.484375 -3.734375 C 4.910156 -4.234375 5.457031 -5.097656 6.125 -6.328125 C 6.789062 -7.554688 7.265625 -8.65625 7.546875 -9.625 L 7.875 -10.8125 L 7.03125 -10.59375 C 6.832031 -10.539062 6.664062 -10.515625 6.53125 -10.515625 C 6.351562 -10.515625 6.160156 -10.546875 5.953125 -10.609375 C 5.742188 -10.679688 5.425781 -10.929688 5 -11.359375 C 4.570312 -11.753906 4.253906 -12.21875 4.046875 -12.75 C 3.835938 -13.289062 3.394531 -14.675781 2.71875 -16.90625 C 2.425781 -17.863281 2.1875 -18.535156 2 -18.921875 C 1.820312 -19.304688 1.59375 -19.625 1.3125 -19.875 C 1.175781 -20.007812 1.109375 -20.164062 1.109375 -20.34375 C 1.109375 -20.5625 1.25 -20.816406 1.53125 -21.109375 C 2.226562 -21.753906 2.773438 -22.082031 3.171875 -22.09375 C 3.566406 -22.113281 3.78125 -22.125 3.8125 -22.125 C 4.488281 -22.125 5.007812 -21.835938 5.375 -21.265625 C 5.550781 -20.960938 5.785156 -20.40625 6.078125 -19.59375 C 6.378906 -18.789062 6.628906 -17.953125 6.828125 -17.078125 C 7.109375 -15.890625 7.359375 -15.222656 7.578125 -15.078125 C 7.578125 -15.078125 7.59375 -15.078125 7.625 -15.078125 C 7.9375 -15.078125 8.554688 -16.023438 9.484375 -17.921875 C 9.710938 -18.378906 9.96875 -18.890625 10.25 -19.453125 C 10.726562 -20.441406 11.0625 -21.085938 11.25 -21.390625 C 11.4375 -21.703125 11.628906 -21.890625 11.828125 -21.953125 C 12.191406 -22.085938 12.554688 -22.242188 12.921875 -22.421875 Z M 10.25 -17.25 C 10.363281 -17.582031 10.421875 -17.804688 10.421875 -17.921875 C 10.421875 -18.085938 10.335938 -18.171875 10.171875 -18.171875 C 10.023438 -18.171875 9.84375 -17.988281 9.625 -17.625 C 9.425781 -17.3125 9.207031 -16.898438 8.96875 -16.390625 C 8.726562 -15.890625 8.578125 -15.441406 8.515625 -15.046875 C 8.484375 -14.929688 8.46875 -14.84375 8.46875 -14.78125 L 8.46875 -14.40625 C 8.78125 -14.550781 9.078125 -14.90625 9.359375 -15.46875 C 9.816406 -16.226562 10.113281 -16.820312 10.25 -17.25 Z M 10.25 -17.25 "/></g></g></g><g fill="#d9d9d9" fill-opacity="1"><g transform="translate(363.615318, 404.116317)"><g><path d="M 5 -29.234375 C 5.28125 -29.410156 5.503906 -29.5 5.671875 -29.5 C 5.703125 -29.5 5.765625 -29.488281 5.859375 -29.46875 C 5.960938 -29.457031 6.128906 -29.367188 6.359375 -29.203125 C 6.523438 -29.023438 6.628906 -28.695312 6.671875 -28.21875 C 6.710938 -27.738281 6.75 -26.285156 6.78125 -23.859375 L 6.78125 -20.046875 L 7.578125 -20.59375 C 8.597656 -21.300781 9.382812 -21.703125 9.9375 -21.796875 C 10.488281 -21.898438 10.890625 -21.953125 11.140625 -21.953125 C 11.796875 -21.953125 12.460938 -21.796875 13.140625 -21.484375 C 13.703125 -21.203125 14.1875 -20.875 14.59375 -20.5 C 15.007812 -20.132812 15.382812 -19.644531 15.71875 -19.03125 C 16.113281 -18.375 16.359375 -17.726562 16.453125 -17.09375 C 16.554688 -16.457031 16.609375 -15.941406 16.609375 -15.546875 C 16.609375 -15.066406 16.566406 -14.601562 16.484375 -14.15625 C 16.253906 -11.695312 15.640625 -9.84375 14.640625 -8.59375 C 13.640625 -7.351562 12.429688 -6.351562 11.015625 -5.59375 C 9.609375 -4.832031 8.222656 -4.453125 6.859375 -4.453125 C 6.210938 -4.453125 5.679688 -4.515625 5.265625 -4.640625 C 4.859375 -4.765625 4.390625 -5.023438 3.859375 -5.421875 C 3.003906 -5.984375 2.578125 -6.5625 2.578125 -7.15625 C 2.578125 -7.414062 2.507812 -7.644531 2.375 -7.84375 C 2.144531 -8.15625 2 -8.660156 1.9375 -9.359375 C 1.882812 -10.066406 1.859375 -11.039062 1.859375 -12.28125 C 1.859375 -12.789062 1.859375 -13.359375 1.859375 -13.984375 C 1.890625 -16.578125 1.960938 -18.632812 2.078125 -20.15625 C 2.191406 -21.6875 2.414062 -23.300781 2.75 -25 C 3.007812 -26.300781 3.304688 -27.273438 3.640625 -27.921875 C 3.984375 -28.578125 4.4375 -29.015625 5 -29.234375 Z M 9.953125 -18.3125 C 9.617188 -18.476562 9.269531 -18.5625 8.90625 -18.5625 C 8.726562 -18.5625 8.460938 -18.523438 8.109375 -18.453125 C 7.753906 -18.378906 7.410156 -18.175781 7.078125 -17.84375 C 6.929688 -17.695312 6.835938 -17.40625 6.796875 -16.96875 C 6.753906 -16.53125 6.707031 -14.859375 6.65625 -11.953125 C 6.625 -11.015625 6.609375 -10.25 6.609375 -9.65625 C 6.609375 -8.78125 6.632812 -8.300781 6.6875 -8.21875 C 6.75 -8.132812 6.820312 -8.09375 6.90625 -8.09375 C 7.445312 -8.09375 8.160156 -8.492188 9.046875 -9.296875 C 9.929688 -10.109375 10.53125 -10.894531 10.84375 -11.65625 C 11.101562 -13.09375 11.234375 -14.28125 11.234375 -15.21875 C 11.234375 -15.664062 11.164062 -16.226562 11.03125 -16.90625 C 10.90625 -17.582031 10.546875 -18.050781 9.953125 -18.3125 Z M 9.953125 -18.3125 "/></g></g></g><g fill="#d9d9d9" fill-opacity="1"><g transform="translate(381.539923, 404.116317)"><g><path d="M 7.578125 -21.90625 C 8.085938 -22.050781 8.613281 -22.125 9.15625 -22.125 C 9.550781 -22.125 10.097656 -22.054688 10.796875 -21.921875 C 11.503906 -21.796875 12.269531 -21.476562 13.09375 -20.96875 C 13.4375 -20.75 13.671875 -20.550781 13.796875 -20.375 C 13.921875 -20.207031 14.066406 -19.867188 14.234375 -19.359375 C 14.460938 -18.710938 14.578125 -18.175781 14.578125 -17.75 C 14.578125 -17.550781 14.523438 -17.289062 14.421875 -16.96875 C 14.328125 -16.644531 13.898438 -16.210938 13.140625 -15.671875 C 12.316406 -15.078125 11.140625 -14.546875 9.609375 -14.078125 C 8.085938 -13.617188 6.90625 -13.390625 6.0625 -13.390625 C 5.976562 -13.390625 5.894531 -13.390625 5.8125 -13.390625 L 5.125 -13.4375 L 5.125 -12.671875 C 5.125 -11.335938 5.429688 -10.234375 6.046875 -9.359375 C 6.671875 -8.484375 7.46875 -8.046875 8.4375 -8.046875 C 9.164062 -8.046875 10.25 -8.304688 11.6875 -8.828125 C 13.132812 -9.359375 14.082031 -9.832031 14.53125 -10.25 C 14.894531 -10.59375 15.207031 -10.765625 15.46875 -10.765625 C 15.5 -10.765625 15.523438 -10.765625 15.546875 -10.765625 C 15.660156 -10.734375 15.71875 -10.675781 15.71875 -10.59375 C 15.71875 -10.445312 15.601562 -10.164062 15.375 -9.75 C 14.476562 -8.082031 13.359375 -6.851562 12.015625 -6.0625 C 10.671875 -5.269531 9.378906 -4.875 8.140625 -4.875 C 7.828125 -4.875 7.515625 -4.898438 7.203125 -4.953125 C 5.785156 -5.128906 4.582031 -5.703125 3.59375 -6.671875 C 2.613281 -7.648438 1.988281 -8.707031 1.71875 -9.84375 C 1.445312 -10.988281 1.3125 -11.972656 1.3125 -12.796875 C 1.3125 -13.617188 1.394531 -14.453125 1.5625 -15.296875 C 1.757812 -16.253906 2.019531 -17.035156 2.34375 -17.640625 C 2.675781 -18.253906 3.179688 -18.898438 3.859375 -19.578125 C 5.046875 -20.734375 6.285156 -21.507812 7.578125 -21.90625 Z M 10.421875 -18.8125 C 10.222656 -19.007812 9.925781 -19.109375 9.53125 -19.109375 C 9.21875 -19.109375 8.863281 -19.050781 8.46875 -18.9375 C 7.96875 -18.800781 7.390625 -18.378906 6.734375 -17.671875 C 6.085938 -16.960938 5.765625 -16.394531 5.765625 -15.96875 C 5.765625 -15.914062 5.820312 -15.890625 5.9375 -15.890625 C 6.070312 -15.890625 6.34375 -15.9375 6.75 -16.03125 C 7.164062 -16.132812 7.710938 -16.304688 8.390625 -16.546875 C 9.066406 -16.785156 9.601562 -17.03125 10 -17.28125 C 10.425781 -17.539062 10.660156 -17.738281 10.703125 -17.875 C 10.742188 -18.019531 10.765625 -18.117188 10.765625 -18.171875 C 10.765625 -18.367188 10.648438 -18.582031 10.421875 -18.8125 Z M 10.421875 -18.8125 "/></g></g></g><g fill="#d9d9d9" fill-opacity="1"><g transform="translate(398.066163, 404.116317)"><g><path d="M 9.40625 -22 C 9.800781 -22.132812 10.109375 -22.203125 10.328125 -22.203125 C 10.554688 -22.203125 10.84375 -22.132812 11.1875 -22 C 11.46875 -21.851562 11.664062 -21.648438 11.78125 -21.390625 C 11.894531 -21.140625 11.953125 -20.75 11.953125 -20.21875 C 11.953125 -19.738281 11.859375 -19.398438 11.671875 -19.203125 C 11.492188 -19.003906 11.160156 -18.890625 10.671875 -18.859375 C 9.515625 -18.742188 8.457031 -18.234375 7.5 -17.328125 C 7.269531 -17.128906 7.113281 -16.988281 7.03125 -16.90625 C 6.945312 -16.820312 6.84375 -16.6875 6.71875 -16.5 C 6.59375 -16.320312 6.507812 -16.195312 6.46875 -16.125 C 6.425781 -16.050781 6.367188 -15.875 6.296875 -15.59375 C 6.222656 -15.3125 6.175781 -15.078125 6.15625 -14.890625 C 6.144531 -14.710938 6.132812 -14.515625 6.125 -14.296875 C 6.113281 -14.085938 6.09375 -13.804688 6.0625 -13.453125 C 6.03125 -13.097656 6.015625 -12.523438 6.015625 -11.734375 C 5.984375 -9.847656 5.945312 -8.378906 5.90625 -7.328125 C 5.863281 -6.285156 5.734375 -5.59375 5.515625 -5.25 C 5.335938 -4.96875 5.21875 -4.796875 5.15625 -4.734375 C 5.101562 -4.679688 5.050781 -4.65625 5 -4.65625 C 4.945312 -4.65625 4.875 -4.6875 4.78125 -4.75 C 4.695312 -4.800781 4.597656 -4.828125 4.484375 -4.828125 C 4.398438 -4.828125 4.300781 -4.800781 4.1875 -4.75 C 4.132812 -4.71875 4.082031 -4.703125 4.03125 -4.703125 C 3.96875 -4.703125 3.878906 -4.726562 3.765625 -4.78125 C 3.660156 -4.84375 3.453125 -5.015625 3.140625 -5.296875 C 2.628906 -5.773438 2.34375 -6.296875 2.28125 -6.859375 C 2.226562 -7.429688 2.175781 -9.878906 2.125 -14.203125 C 2.0625 -18.742188 1.988281 -21.128906 1.90625 -21.359375 C 1.875 -21.472656 1.859375 -21.554688 1.859375 -21.609375 C 1.859375 -21.671875 1.875 -21.703125 1.90625 -21.703125 C 1.9375 -21.703125 1.960938 -21.703125 1.984375 -21.703125 C 2.097656 -21.703125 2.253906 -21.6875 2.453125 -21.65625 C 2.597656 -21.625 2.726562 -21.609375 2.84375 -21.609375 C 3.039062 -21.609375 3.207031 -21.648438 3.34375 -21.734375 C 3.425781 -21.816406 3.597656 -21.859375 3.859375 -21.859375 C 4.054688 -21.859375 4.296875 -21.832031 4.578125 -21.78125 L 5.546875 -21.609375 L 6.109375 -19.203125 L 6.78125 -20 C 7.570312 -20.957031 8.445312 -21.625 9.40625 -22 Z M 9.40625 -22 "/></g></g></g><g fill="#d9d9d9" fill-opacity="1"><g transform="translate(410.100655, 404.116317)"><g><path d="M 3.21875 -22.15625 C 3.613281 -22.25 3.894531 -22.296875 4.0625 -22.296875 C 4.09375 -22.296875 4.148438 -22.285156 4.234375 -22.265625 C 4.316406 -22.253906 4.5 -22.191406 4.78125 -22.078125 C 5.15625 -21.929688 5.492188 -21.675781 5.796875 -21.3125 C 6.109375 -20.945312 6.320312 -20.550781 6.4375 -20.125 C 6.550781 -19.644531 6.625 -19.390625 6.65625 -19.359375 C 6.65625 -19.359375 6.722656 -19.394531 6.859375 -19.46875 C 7.003906 -19.539062 7.179688 -19.664062 7.390625 -19.84375 C 7.609375 -20.03125 7.84375 -20.222656 8.09375 -20.421875 C 9.019531 -21.179688 9.71875 -21.65625 10.1875 -21.84375 C 10.65625 -22.03125 11.226562 -22.125 11.90625 -22.125 C 11.988281 -22.125 12.085938 -22.125 12.203125 -22.125 C 12.910156 -22.09375 13.441406 -21.988281 13.796875 -21.8125 C 14.148438 -21.644531 14.476562 -21.3125 14.78125 -20.8125 C 15.125 -20.351562 15.375 -19.769531 15.53125 -19.0625 C 15.6875 -18.363281 15.789062 -17.347656 15.84375 -16.015625 C 15.957031 -12.628906 16.046875 -10.625 16.109375 -10 L 16.234375 -8.984375 L 16.703125 -9.359375 C 17.035156 -9.671875 17.285156 -9.828125 17.453125 -9.828125 C 17.566406 -9.828125 17.625 -9.726562 17.625 -9.53125 C 17.625 -9.53125 17.625 -9.515625 17.625 -9.484375 C 17.625 -9.179688 17.457031 -8.691406 17.125 -8.015625 C 16.75 -7.304688 16.476562 -6.738281 16.3125 -6.3125 C 16.195312 -5.976562 15.863281 -5.535156 15.3125 -4.984375 C 14.769531 -4.429688 14.351562 -4.097656 14.0625 -3.984375 C 13.925781 -3.929688 13.785156 -3.90625 13.640625 -3.90625 C 13.160156 -3.90625 12.707031 -4.1875 12.28125 -4.75 C 12 -5.113281 11.804688 -5.460938 11.703125 -5.796875 C 11.609375 -6.140625 11.539062 -6.632812 11.5 -7.28125 C 11.457031 -7.9375 11.425781 -9.15625 11.40625 -10.9375 C 11.3125 -15.457031 11.195312 -17.957031 11.0625 -18.4375 C 10.976562 -18.800781 10.765625 -19.007812 10.421875 -19.0625 C 10.304688 -19.0625 10.164062 -19.0625 10 -19.0625 C 9.65625 -19.0625 9.398438 -19.019531 9.234375 -18.9375 C 9.066406 -18.851562 8.828125 -18.671875 8.515625 -18.390625 C 8.316406 -18.191406 8.175781 -18.050781 8.09375 -17.96875 C 8.007812 -17.882812 7.894531 -17.742188 7.75 -17.546875 C 7.613281 -17.347656 7.523438 -17.195312 7.484375 -17.09375 C 7.441406 -17 7.375 -16.800781 7.28125 -16.5 C 7.195312 -16.207031 7.132812 -15.96875 7.09375 -15.78125 C 7.050781 -15.601562 6.992188 -14.851562 6.921875 -13.53125 C 6.859375 -12.21875 6.800781 -11.359375 6.75 -10.953125 C 6.707031 -10.546875 6.644531 -9.945312 6.5625 -9.15625 C 6.34375 -7.207031 6.175781 -6.035156 6.0625 -5.640625 C 5.71875 -4.617188 5.363281 -4.066406 5 -3.984375 C 4.632812 -3.898438 4.394531 -3.859375 4.28125 -3.859375 C 3.738281 -3.859375 3.1875 -4.179688 2.625 -4.828125 C 2.425781 -5.054688 2.285156 -5.25 2.203125 -5.40625 C 2.117188 -5.5625 2.039062 -5.726562 1.96875 -5.90625 C 1.894531 -6.09375 1.859375 -6.34375 1.859375 -6.65625 C 1.859375 -6.707031 1.863281 -6.847656 1.875 -7.078125 C 1.894531 -7.304688 1.925781 -7.640625 1.96875 -8.078125 C 2.007812 -8.515625 2.0625 -9.195312 2.125 -10.125 C 2.320312 -12.84375 2.421875 -14.976562 2.421875 -16.53125 C 2.421875 -18.113281 2.320312 -19.128906 2.125 -19.578125 C 1.8125 -20.222656 1.65625 -20.671875 1.65625 -20.921875 C 1.65625 -21.179688 1.8125 -21.425781 2.125 -21.65625 C 2.488281 -21.90625 2.851562 -22.070312 3.21875 -22.15625 Z M 3.21875 -22.15625 "/></g></g></g><g fill="#d9d9d9" fill-opacity="1"><g transform="translate(428.279514, 404.116317)"><g><path d="M 7.625 -22.125 C 8.382812 -22.375 9.109375 -22.5 9.796875 -22.5 C 10.492188 -22.5 11.28125 -22.359375 12.15625 -22.078125 C 13.007812 -21.796875 13.722656 -21.484375 14.296875 -21.140625 C 14.878906 -20.804688 15.410156 -20.359375 15.890625 -19.796875 C 17.242188 -18.296875 17.921875 -16.414062 17.921875 -14.15625 C 17.921875 -13.875 17.90625 -13.601562 17.875 -13.34375 C 17.707031 -10.75 16.722656 -8.585938 14.921875 -6.859375 C 13.585938 -5.617188 12.390625 -4.898438 11.328125 -4.703125 C 10.273438 -4.503906 9.507812 -4.40625 9.03125 -4.40625 C 7.894531 -4.40625 6.710938 -4.707031 5.484375 -5.3125 C 4.253906 -5.925781 3.234375 -7.007812 2.421875 -8.5625 C 2.046875 -9.289062 1.78125 -9.992188 1.625 -10.671875 C 1.46875 -11.359375 1.390625 -12.222656 1.390625 -13.265625 C 1.390625 -15.460938 1.921875 -17.3125 2.984375 -18.8125 C 4.046875 -20.3125 5.59375 -21.414062 7.625 -22.125 Z M 11.0625 -18.765625 C 10.550781 -19.023438 10.070312 -19.15625 9.625 -19.15625 C 9.195312 -19.15625 8.664062 -19.003906 8.03125 -18.703125 C 7.394531 -18.410156 6.796875 -17.65625 6.234375 -16.4375 C 6.003906 -15.957031 5.867188 -15.554688 5.828125 -15.234375 C 5.785156 -14.910156 5.765625 -14.195312 5.765625 -13.09375 C 5.765625 -12.019531 5.785156 -11.328125 5.828125 -11.015625 C 5.867188 -10.703125 6.003906 -10.304688 6.234375 -9.828125 C 6.796875 -8.753906 7.570312 -8.09375 8.5625 -7.84375 C 8.644531 -7.8125 8.726562 -7.796875 8.8125 -7.796875 C 9.351562 -7.796875 10.066406 -8.160156 10.953125 -8.890625 C 11.835938 -9.628906 12.425781 -10.4375 12.71875 -11.3125 C 12.882812 -11.851562 12.972656 -12.390625 12.984375 -12.921875 C 13.003906 -13.460938 13.015625 -13.789062 13.015625 -13.90625 C 13.015625 -14.71875 12.925781 -15.421875 12.75 -16.015625 C 12.632812 -16.578125 12.40625 -17.132812 12.0625 -17.6875 C 11.726562 -18.238281 11.394531 -18.597656 11.0625 -18.765625 Z M 11.0625 -18.765625 "/></g></g></g><g fill="#d9d9d9" fill-opacity="1"><g transform="translate(447.517753, 404.116317)"><g><path d="M 11.703125 -22.421875 C 11.953125 -22.441406 12.191406 -22.453125 12.421875 -22.453125 C 12.984375 -22.453125 13.492188 -22.359375 13.953125 -22.171875 C 14.421875 -21.992188 14.65625 -21.707031 14.65625 -21.3125 C 14.65625 -20.882812 13.710938 -19.289062 11.828125 -16.53125 C 11.171875 -15.59375 10.757812 -14.941406 10.59375 -14.578125 L 10.296875 -14.03125 L 11.015625 -12.75 C 11.492188 -11.90625 12.1875 -10.890625 13.09375 -9.703125 C 14.03125 -8.460938 14.523438 -7.644531 14.578125 -7.25 C 14.609375 -6.9375 14.664062 -6.695312 14.75 -6.53125 C 14.769531 -6.5 14.78125 -6.457031 14.78125 -6.40625 C 14.78125 -6.226562 14.710938 -5.957031 14.578125 -5.59375 C 14.429688 -5.3125 14.285156 -5.101562 14.140625 -4.96875 C 14.003906 -4.84375 13.78125 -4.726562 13.46875 -4.625 C 13.132812 -4.476562 12.890625 -4.40625 12.734375 -4.40625 C 12.578125 -4.40625 12.34375 -4.476562 12.03125 -4.625 C 11.582031 -4.820312 11.179688 -5.144531 10.828125 -5.59375 C 10.472656 -6.039062 9.914062 -6.859375 9.15625 -8.046875 L 7.796875 -10.21875 L 7.15625 -9.453125 C 6.757812 -8.941406 6.335938 -8.234375 5.890625 -7.328125 C 4.984375 -5.578125 4.390625 -4.703125 4.109375 -4.703125 C 3.941406 -4.703125 3.785156 -4.601562 3.640625 -4.40625 C 3.554688 -4.289062 3.484375 -4.222656 3.421875 -4.203125 C 3.367188 -4.191406 3.34375 -4.1875 3.34375 -4.1875 C 3.226562 -4.1875 3.003906 -4.257812 2.671875 -4.40625 C 1.628906 -4.769531 1.097656 -5.132812 1.078125 -5.5 C 1.066406 -5.875 1.0625 -6.078125 1.0625 -6.109375 C 1.0625 -6.804688 1.554688 -7.878906 2.546875 -9.328125 C 2.992188 -9.890625 3.257812 -10.171875 3.34375 -10.171875 C 3.34375 -10.140625 3.359375 -10.125 3.390625 -10.125 C 3.441406 -10.125 3.539062 -10.238281 3.6875 -10.46875 C 4.332031 -11.425781 4.894531 -12.375 5.375 -13.3125 C 5.488281 -13.53125 5.546875 -13.671875 5.546875 -13.734375 C 5.546875 -13.847656 5.078125 -14.613281 4.140625 -16.03125 C 3.210938 -17.457031 2.46875 -18.539062 1.90625 -19.28125 C 1.34375 -20.007812 1.0625 -20.460938 1.0625 -20.640625 C 1.0625 -20.835938 1.363281 -21.125 1.96875 -21.5 C 2.570312 -21.882812 3.046875 -22.09375 3.390625 -22.125 C 3.503906 -22.144531 3.617188 -22.15625 3.734375 -22.15625 C 4.097656 -22.15625 4.457031 -22.03125 4.8125 -21.78125 C 5.164062 -21.53125 5.609375 -20.976562 6.140625 -20.125 C 7.097656 -18.570312 7.664062 -17.796875 7.84375 -17.796875 C 7.925781 -17.796875 8.289062 -18.332031 8.9375 -19.40625 C 9.5625 -20.425781 9.992188 -21.113281 10.234375 -21.46875 C 10.472656 -21.820312 10.691406 -22.0625 10.890625 -22.1875 C 11.085938 -22.3125 11.359375 -22.390625 11.703125 -22.421875 Z M 11.703125 -22.421875 "/></g></g></g></svg>